<svg xmlns="http://www.w3.org/2000/svg" enable-background="new 0 0 295.926 395.244" viewBox="0 0 295.926 395.244" id="coffee"><path fill="#fdbb03" d="M94.511 11.579v58.669l-16.796 12.21v253.345s14.667 14.667 13.895 47.09l-66.907-3.088-13.377-58.155 6.948-247.029 6.429-63.041h69.808z"></path><path fill="#352517" d="m295.667 106.717-5.916-28.472V12.351C289.75 5.53 284.22 0 277.399 0H18.527C11.706 0 6.176 5.53 6.176 12.351v65.894L.26 106.717c-.173.827-.26 1.671-.26 2.515v217.307c0 1.04.133 2.075.392 3.085l5.784 22.414v30.854c0 6.821 5.53 12.351 12.351 12.351h258.872c6.821 0 12.351-5.53 12.351-12.351v-30.854l5.784-22.414c.259-1.01.392-2.044.392-3.085V109.232c0-.844-.087-1.688-.259-2.515zm-30.619-82.014v33.408l-1.101-.681a12.36 12.36 0 0 0-13.003 0l-13.446 8.326-13.419-8.32a12.349 12.349 0 0 0-13.018 0l-13.407 8.314-13.404-8.314a12.358 12.358 0 0 0-13.027.003l-13.377 8.308-13.401-8.311a12.354 12.354 0 0 0-13.021 0l-13.401 8.314-13.398-8.311a12.345 12.345 0 0 0-13.027 0l-13.38 8.308-13.395-8.308a12.352 12.352 0 0 0-13.027 0l-13.377 8.308-7.545-4.683V24.703h234.174zm6.175 300.268-5.784 22.414a12.39 12.39 0 0 0-.392 3.085v20.071H30.878V350.47c0-1.04-.133-2.078-.392-3.085l-5.784-22.414V110.499l4.454-21.431 2.756 1.71a12.35 12.35 0 0 0 13.03 0l13.377-8.308 13.395 8.308a12.345 12.345 0 0 0 13.027 0l13.38-8.308 13.395 8.308a12.341 12.341 0 0 0 13.021.003l13.401-8.314 13.404 8.314a12.352 12.352 0 0 0 13.027-.003l13.377-8.308 13.401 8.311a12.354 12.354 0 0 0 13.021 0l13.407-8.314 13.413 8.314a12.352 12.352 0 0 0 13.009.006l13.452-8.329 9.125 5.648 4.653 22.393v214.472z"></path><path fill="#352517" d="M160.345 151.63h-.196c-15.165.06-30.978 7.291-43.378 19.833-21.895 22.14-25.734 54.058-8.558 71.156 7.023 6.987 16.483 10.678 27.368 10.678.063 0 .13 0 .196-.003 15.165-.06 30.978-7.288 43.378-19.83 21.895-22.143 25.734-54.061 8.558-71.156-7.023-6.987-16.483-10.678-27.368-10.678zm-30.402 32.859c8.835-8.935 20.155-14.29 30.281-14.333h.115c2.038 0 4.482.235 6.961.986-1 4.692-4.306 12.936-15.215 19.757-4.312 2.696-8.063 4.773-11.374 6.607-10.948 6.07-18.226 10.608-24.347 21.868-1.83-10.48 3.05-24.237 13.579-34.885zm36.041 35.948c-8.835 8.932-20.155 14.29-30.281 14.333-1.755.018-3.76-.211-5.8-.688 4.743-12.02 9.217-14.507 19.792-20.37 3.555-1.972 7.581-4.207 12.216-7.104 8.796-5.5 14.378-11.845 17.977-17.867.452 9.985-4.412 22.095-13.904 31.696zM246.774 331.943h-3.088a9.264 9.264 0 0 0 0 18.528h3.088a9.264 9.264 0 0 0 0-18.528zM118.255 331.943h-6.601a9.264 9.264 0 0 0 0 18.528h6.601a9.264 9.264 0 0 0 0-18.528zM85.247 331.943h-6.601a9.264 9.264 0 0 0 0 18.528h6.601a9.264 9.264 0 0 0 0-18.528zM217.28 331.943h-6.601a9.264 9.264 0 0 0 0 18.528h6.601a9.264 9.264 0 0 0 0-18.528zM151.265 331.943h-6.604a9.264 9.264 0 0 0 0 18.528h6.604a9.264 9.264 0 0 0 0-18.528zM184.272 331.943h-6.601a9.264 9.264 0 0 0 0 18.528h6.601a9.264 9.264 0 0 0 0-18.528zM52.24 331.943h-3.088a9.264 9.264 0 0 0 0 18.528h3.088a9.264 9.264 0 0 0 0-18.528z"></path></svg>