<?xml version="1.0" encoding="utf-8"?><!-- Uploaded to: SVG Repo, www.svgrepo.com, Generator: SVG Repo Mixer Tools -->
<svg fill="#000000" width="800px" height="800px" viewBox="0 0 24 24" id="home-alt-4" data-name="Flat Line" xmlns="http://www.w3.org/2000/svg" class="icon flat-line"><path id="secondary" d="M21,12H19v8a1,1,0,0,1-1,1H6a1,1,0,0,1-1-1V12H3l9-9Z" style="fill: rgb(44, 169, 188); stroke-width: 2;"></path><path id="primary" d="M16,7V4a1,1,0,0,1,1-1h1a1,1,0,0,1,1,1v6" style="fill: none; stroke: rgb(0, 0, 0); stroke-linecap: round; stroke-linejoin: round; stroke-width: 2;"></path><path id="primary-2" data-name="primary" d="M21,12H19v8a1,1,0,0,1-1,1H6a1,1,0,0,1-1-1V12H3l9-9Z" style="fill: none; stroke: rgb(0, 0, 0); stroke-linecap: round; stroke-linejoin: round; stroke-width: 2;"></path></svg>