<svg xmlns="http://www.w3.org/2000/svg" viewBox="0 0 96 96" id="menu-board"><g data-name="Menu Board"><polygon fill="#b95b69" points="88.82 78.71 82.77 78.71 81.74 71.34 39.74 71.34 40.77 78.71 34.72 78.71 24.84 7.66 78.94 7.66 88.82 78.71"></polygon><path fill="#ffd3c3" d="M80.19,16.64H51.44a7,7,0,0,1-2.7-9h30.2Z"></path><path fill="#ffb5b4" d="M77.19,7.66l-1.25,9H51.44a7,7,0,0,1-2.7-9Z"></path><polygon fill="#d27e69" points="63.27 78.72 9.18 78.72 19.06 7.66 73.15 7.66 63.27 78.72"></polygon><path fill="#c85b55" d="M36.28,11.07a3,3,0,0,1-3,2.58H28.44a4.79,4.79,0,0,1-4.74,4.13l-6.88,49.5a4.79,4.79,0,0,1,4.74,5.45h5.72a3,3,0,1,1,0,6H9.18L19.06,7.66H33.31A3,3,0,0,1,36.28,11.07Z"></path><path fill="#b9424b" d="M16.29,27.58,12.14,57.43a3,3,0,0,0,5.94.82l4.14-29.84a3,3,0,1,0-5.93-.83Z"></path><path fill="#c85b55" d="M46.05,75.31a3,3,0,0,1,3-2.58h4.87a4.79,4.79,0,0,1,4.74-4.13l6.88-49.5a4.79,4.79,0,0,1-4.74-5.45H55.05a3,3,0,0,1,0-6h18.1L63.27,78.72H49A3,3,0,0,1,46.05,75.31Z"></path><path fill="#b9424b" d="M64.33,27.58,60.18,57.43a3,3,0,0,0,5.94.82l4.15-29.84a3,3,0,0,0-5.94-.83Z"></path><polygon fill="#913850" points="78.86 71.34 64.3 71.34 71.58 18.99 78.86 71.34"></polygon><polygon fill="#5d78ab" points="63.28 78.71 61.01 94.99 54.96 94.99 56.39 84.7 14.39 84.7 12.96 94.99 6.92 94.99 9.18 78.71 63.28 78.71"></polygon><polygon fill="#445083" points="62.9 81.44 63.28 78.71 9.18 78.71 8.8 81.44 62.9 81.44"></polygon><polygon fill="#5d78ab" points="91.08 94.99 85.04 94.99 82.78 78.71 88.82 78.71 91.08 94.99"></polygon><polygon fill="#445083" points="89.23 81.63 88.82 78.71 82.78 78.71 83.19 81.63 89.23 81.63"></polygon><path fill="#ffba8c" d="M16.82,67.28l6.88-49.5a4.79,4.79,0,0,0,4.74-4.13H60.77a4.79,4.79,0,0,0,4.75,5.45L58.63,68.6a4.78,4.78,0,0,0-4.74,4.13H21.56A4.79,4.79,0,0,0,16.82,67.28Z"></path><path fill="#ffdda5" d="M25.59,67.73A9.76,9.76,0,0,0,22.32,64l5.89-42.31a10,10,0,0,0,3.46-3H56.74A9.76,9.76,0,0,0,60,22.4L54.13,64.71a9.9,9.9,0,0,0-3.47,3Z"></path><rect width="46.01" height="6.59" x="23.05" y="1.07" fill="#ff9769"></rect><rect width="29.51" height="3.29" x="31.3" y="4.37" fill="#ffba8c"></rect><rect width="7.49" height="6.59" x="69.06" y="1.07" fill="#ffd3c3"></rect><path fill="#d27e69" d="M46.19,32.2c-1.91,1.91-4.89,2.29-6.6.58-1.54-1.54-1.53-4.5.58-6.61,1.94-1.94,4.9-2.27,6.6-.57S48.25,30.14,46.19,32.2Z"></path><path fill="#9b3d4b" d="M47.37,26.4c-.75.54-3.08.74-3.64,3.09s-2,3.07-3.29,3.92A3.37,3.37,0,0,1,39,32a.08.08,0,0,1,0,0c1.33-.88,2.36-1.36,2.75-2.92a5.42,5.42,0,0,1,3.14-3.72l.89-.38A3.62,3.62,0,0,1,47.37,26.4Z"></path><path fill="#302d3d" d="M30.3 41.31H25.62a1 1 0 010-2H30.3a1 1 0 010 2zM47.5 41.31h-13a1 1 0 110-2h13a1 1 0 010 2zM57.52 41.31H52a1 1 0 010-2h5.55a1 1 0 110 2zM39.59 46.5H24.89a1 1 0 010-2h14.7a1 1 0 010 2zM56.8 46.5H44.08a1 1 0 010-2H56.8a1 1 0 010 2zM28.67 51.69h-4.5a1 1 0 010-2h4.5a1 1 0 010 2zM56.08 51.69H33a1 1 0 010-2H56.08a1 1 0 010 2zM55.36 56.88H23.45a1 1 0 110-2H55.36a1 1 0 010 2zM37.88 62.06H22.73a1 1 0 010-2H37.88a1 1 0 010 2zM54.64 62.06H44.06a1 1 0 010-2H54.64a1 1 0 010 2zM52 67.25H24.69a1 1 0 110-2H52a1 1 0 010 2zM40.77 79.71H34.72a1 1 0 010-2h6.05a1 1 0 010 2zM26.15 18.1a1 1 0 111-1A1 1 0 0126.15 18.1z"></path><path fill="#302d3d" d="M88.82,79.71h-6a1,1,0,0,1-1-.86l-.91-6.51H64.3a1,1,0,1,1,0-2H81.74a1,1,0,0,1,1,.86l.91,6.51h4l-9.6-69H24.85a1,1,0,1,1,0-2h54.1a1,1,0,0,1,1,.86l9.88,71.05A1,1,0,0,1,88.82,79.71Z"></path><path fill="#302d3d" d="M80.19,17.64H71.9a1,1,0,0,1,0-2H79l-1-7H24.85a1,1,0,0,1,0-2H78.94a1,1,0,0,1,1,.86l1.25,9A1,1,0,0,1,80.19,17.64Z"></path><path fill="#302d3d" d="M63.27,79.72H9.18a1,1,0,0,1-1-1.14L18.07,7.52a1,1,0,0,1,1-.86H73.15a1,1,0,0,1,1,1.14L64.26,78.85A1,1,0,0,1,63.27,79.72Zm-52.94-2H62.4L72,8.66H19.93Z"></path><path fill="#302d3d" d="M61 96H55a1 1 0 01-1-1.14l1.27-9.15h-40L14 95.13A1 1 0 0113 96h-6a1 1 0 01-1-1.14L8.19 78.58a1 1 0 011-.87h54.1a1 1 0 011 1.14L62 95.13A1 1 0 0161 96zm-4.9-2h4l2-14.28H10.05L8.06 94h4l1.31-9.43a1 1 0 011-.86h42a1 1 0 011 1.14zM91.08 96H85a1 1 0 01-1-.86L81.79 78.85a1 1 0 011-1.14h6a1 1 0 011 .87l2.26 16.27A1 1 0 0191.08 96zm-5.17-2h4L88 79.71h-4zM53.89 73.73H21.56a1 1 0 01-1-1.14 3.79 3.79 0 00-3.75-4.31 1 1 0 01-1-1.14l6.88-49.5a1 1 0 011-.86 3.81 3.81 0 003.75-3.27 1 1 0 011-.86H60.77a1 1 0 011 1.13 3.8 3.8 0 003.76 4.32 1 1 0 011 1.13L59.62 68.74a1 1 0 01-1 .86 3.8 3.8 0 00-3.75 3.27A1 1 0 0153.89 73.73zm-31.29-2H53.09a5.82 5.82 0 014.66-4.06L64.38 20a5.77 5.77 0 01-4.64-5.33H29.24a5.84 5.84 0 01-4.66 4.06L18 66.39A5.81 5.81 0 0122.6 71.73zM69.06 8.66h-46a1 1 0 01-1-1V1.07a1 1 0 011-1h46a1 1 0 011 1V7.66A1 1 0 0169.06 8.66zm-45-2h44V2.07h-44z"></path><path fill="#302d3d" d="M76.54 8.66H69.06a1 1 0 01-1-1V1.07a1 1 0 011-1h7.48a1 1 0 011 1V7.66A1 1 0 0176.54 8.66zm-6.48-2h5.48V2.07H70.06zM37.51 29.51c.43-4.94 6.65-7.94 10-4.62 2.05 2.05 1.79 5.65-.58 8h0C43.05 36.75 37.07 34.6 37.51 29.51zm2 .17a2.8 2.8 0 003.17 3.18c3.27-.29 5.48-4.46 3.38-6.56S39.8 26.36 39.51 29.68zm6.68 2.52h0z"></path></g></svg>