<svg xmlns="http://www.w3.org/2000/svg" data-name="Layer 1" viewBox="0 0 512 512" id="menu-cards"><rect width="382" height="497" x="65" y="7.5" fill="#f9b15e" rx="30"></rect><path fill="#fff" d="M105 434.5v-357a30 30 0 0 0 30-30h242a30 30 0 0 0 30 30v357a30 30 0 0 0-30 30H135a30 30 0 0 0-30-30Z"></path><rect width="202" height="38" x="155" y="92.5" fill="#fdd8ae" rx="10"></rect><path d="M357 412H155a7.5 7.5 0 0 0 0 15h202a7.5 7.5 0 0 0 0-15Zm-202-39.5h101.447a7.5 7.5 0 0 0 0-15H155a7.5 7.5 0 0 0 0 15Zm0-45h101.447a7.5 7.5 0 0 0 0-15H155a7.5 7.5 0 0 0 0 15Zm0-90h101.447a7.5 7.5 0 0 0 0-15H155a7.5 7.5 0 0 0 0 15Zm0 45h101.447a7.5 7.5 0 0 0 0-15H155a7.5 7.5 0 0 0 0 15Zm0-90h101.447a7.5 7.5 0 0 0 0-15H155a7.5 7.5 0 0 0 0 15Zm202 165h-26.447a7.5 7.5 0 0 0 0 15H357a7.5 7.5 0 0 0 0-15ZM347 85H165a17.52 17.52 0 0 0-17.5 17.5v18A17.52 17.52 0 0 0 165 138h182a17.52 17.52 0 0 0 17.5-17.5v-18A17.52 17.52 0 0 0 347 85Zm2.5 35.5a2.503 2.503 0 0 1-2.5 2.5H165a2.503 2.503 0 0 1-2.5-2.5v-18a2.503 2.503 0 0 1 2.5-2.5h182a2.503 2.503 0 0 1 2.5 2.5ZM407 70a22.526 22.526 0 0 1-22.5-22.5A7.5 7.5 0 0 0 377 40H135a7.5 7.5 0 0 0-7.5 7.5A22.526 22.526 0 0 1 105 70a7.5 7.5 0 0 0-7.5 7.5v357a7.5 7.5 0 0 0 7.5 7.5 22.526 22.526 0 0 1 22.5 22.5 7.5 7.5 0 0 0 7.5 7.5h242a7.5 7.5 0 0 0 7.5-7.5A22.526 22.526 0 0 1 407 442a7.5 7.5 0 0 0 7.5-7.5v-357A7.5 7.5 0 0 0 407 70Zm-7.5 357.753A37.62 37.62 0 0 0 370.253 457H141.747a37.62 37.62 0 0 0-29.247-29.247V84.247A37.62 37.62 0 0 0 141.747 55h228.506A37.62 37.62 0 0 0 399.5 84.247ZM417 0H95a37.542 37.542 0 0 0-37.5 37.5v437A37.542 37.542 0 0 0 95 512h322a37.542 37.542 0 0 0 37.5-37.5v-437A37.542 37.542 0 0 0 417 0Zm22.5 474.5A22.526 22.526 0 0 1 417 497H95a22.526 22.526 0 0 1-22.5-22.5v-437A22.526 22.526 0 0 1 95 15h322a22.526 22.526 0 0 1 22.5 22.5Zm-82.5-207h-26.447a7.5 7.5 0 0 0 0 15H357a7.5 7.5 0 0 0 0-15Zm0 45h-26.447a7.5 7.5 0 0 0 0 15H357a7.5 7.5 0 0 0 0-15Zm0-135h-26.447a7.5 7.5 0 0 0 0 15H357a7.5 7.5 0 0 0 0-15Zm0 45h-26.447a7.5 7.5 0 0 0 0 15H357a7.5 7.5 0 0 0 0-15Z"></path></svg>