<svg xmlns="http://www.w3.org/2000/svg" viewBox="0 0 212.03 395.244" id="food"><path fill="#c9711a" d="M62.785 159.772s10.482 170.627 106.368 172.943l-7.557 47.135H48.118L34.995 159.772h27.79z"></path><path fill="#352517" d="M199.678 110.131h-5.591c-4.068-29.099-22.188-53.709-47.325-66.714l.884-18.714h45.856c6.821 0 12.351-5.53 12.351-12.351S200.324 0 193.503 0h-57.638c-6.595 0-12.026 5.181-12.336 11.769l-1.098 23.264c-5.328-.998-10.801-1.58-16.416-1.58-44.891 0-82.027 33.426-88.073 76.677h-5.591C5.53 110.131 0 115.661 0 122.482v37.054c0 6.824 5.53 12.351 12.351 12.351h5.295l10.476 189.45c1.052 19.013 16.793 33.906 35.836 33.906h84.114c19.043 0 34.783-14.893 35.836-33.906l10.476-189.45h5.295c6.821 0 12.351-5.527 12.351-12.351v-37.054c0-6.821-5.531-12.351-12.352-12.351zM24.703 147.185v-12.351h93.021l-.582 12.351H24.703zm117.748-12.351h44.876v12.351h-45.458l.582-12.351zm26.702-24.703h-25.537l1.811-38.387c12.032 9.369 20.695 22.869 23.726 38.387zm-63.138-51.975c5.254 0 10.345.681 15.237 1.876l-2.363 50.099H42.877c5.775-29.582 31.892-51.975 63.138-51.975zm53.226 301.816c-.329 5.925-5.235 10.569-11.169 10.569H63.958c-5.934 0-10.841-4.644-11.169-10.569l-10.4-188.084h73.587l-7.885 167.193c-.323 6.815 4.939 12.599 11.754 12.921.199.006.395.012.591.012 6.556 0 12.017-5.153 12.327-11.769l7.941-168.357h28.938l-10.401 188.084z"></path></svg>