<svg xmlns="http://www.w3.org/2000/svg" viewBox="0 0 96 96" id="milkshake"><path fill="#a64c33" d="M48.73,13.31A1,1,0,0,1,48,11.6a5.69,5.69,0,0,1,5.83-1.39,1,1,0,1,1-.62,1.9,3.7,3.7,0,0,0-3.79.91A1,1,0,0,1,48.73,13.31Z"></path><path fill="#d4f4ef" d="M65,1.89c-.91,4.42-8.19,39.67-8.26,40L52.46,41c4.67-22.59-7.16,34.71,8.27-40Z"></path><path fill="none" stroke="#302d3d" stroke-linecap="round" stroke-linejoin="round" stroke-width="2" d="M57.94,36.3a4.42,4.42,0,0,1-3.43-5.21"></path><path fill="#5eb3ef" d="M59.83 27.16l-.41 2A5.38 5.38 0 0155.57 26c0-.1 0 .05.83-4a1 1 0 01.78 1.18A3.41 3.41 0 0059.83 27.16zM61.51 19l-.41 2a5.41 5.41 0 01-3.85-3.14l.83-4A1 1 0 0158.86 15 3.42 3.42 0 0061.51 19zM63.19 10.85l-.4 2A5.41 5.41 0 0158.93 9.7l.84-4a1 1 0 01.78 1.18A3.39 3.39 0 0063.19 10.85zM31 30.14c.2 31.87 7.12 57.5 15.63 57.5S62 62 62.21 30.14z"></path><path fill="#90e0ef" d="M42.85,73.88c-2.64-7.68-5.18-20.62-5.77-37.74h19C55.51,53.26,53,66.2,50.32,73.88A4,4,0,0,1,42.85,73.88Z"></path><path fill="#fff" d="M51.27 42a2.07 2.07 0 00-2.06-2.26H44a2.08 2.08 0 000 4.16h5.24A2.06 2.06 0 0051.27 42zM42.69 50.41c.54 4.75 1.2 8.85 1.87 12.29a2.06 2.06 0 004 0c.68-3.44 1.33-7.54 1.88-12.29a2.07 2.07 0 00-2.05-2.31H44.73A2.07 2.07 0 0042.69 50.41z"></path><path fill="#367cef" d="M62.09,36.25q.1-3,.12-6.11H31q0,3.09.13,6.11Z"></path><path fill="#5e9aef" d="M56,36.25q.06-3,.07-6.11h-19q0,3.09.08,6.11Z"></path><path fill="#367cef" d="M46.59,88.64c-1.1,0-4.44,0-5.91-35.69a1,1,0,0,1,2-.09c.89,21.72,2.74,31.65,3.91,33.56.8-1.35,2.19-6.94,3.22-21.27a1,1,0,0,1,1.07-.93,1,1,0,0,1,.93,1.07C50.12,88.64,47.73,88.64,46.59,88.64Z"></path><rect width="12.83" height="4.67" x="40.17" y="85.3" fill="#405ec7" rx="2.33"></rect><rect width="5.25" height="4.67" x="43.96" y="85.3" fill="#5e9aef" rx="2.33"></rect><path fill="#90e0ef" d="M53.12,95A1.13,1.13,0,0,0,54,93.12c-3.66-4.21-11.07-4.2-14.73,0A1.13,1.13,0,0,0,40.06,95Z"></path><path fill="#feebc2" d="M60.34,30.14H32.84A6.14,6.14,0,0,1,39,24h1.44a6.17,6.17,0,0,1,12.34,0H54.2A6.14,6.14,0,0,1,60.34,30.14Z"></path><path fill="#fed290" d="M47.59,23a1,1,0,0,1-1,1H40.42a6,6,0,0,1,.34-2h5.83A1,1,0,0,1,47.59,23Z"></path><circle cx="46.69" cy="14.49" r="3.29" fill="#ef3351"></circle></svg>